<?xml version="1.0" encoding="UTF-8"?>
<svg id="Capa_1" xmlns="http://www.w3.org/2000/svg" version="1.1" viewBox="0 0 595.28 841.89">
  <!-- Generator: Adobe Illustrator 29.8.4, SVG Export Plug-In . SVG Version: 2.1.1 Build 6)  -->
  <defs>
    <style>
      .st0 {
        fill: #23241e;
        font-family: Italiana-Regular, Italiana;
      }

      .st1 {
        font-size: 47.83px;
      }

      .st2 {
        font-size: 95.65px;
      }
    </style>
  </defs>
  <g>
    <path d="M129.84,338.51c1.06-58.9-.59-120.44.39-159.86l-40.17,1.08c52.73-22.69,78.11-71.2,109.8-115.76v103.78l45.93.02v11.94s-45.95,0-45.95,0c-.28,39.68-.76,193.56-.51,282.35.01,11.24-2,46.17,7.92,64.24,4.44,8.81,16.25,21,22.53,28.62-122.74-3.88-98.46-109.17-99.95-204.4v-12Z"/>
    <path d="M381.48,546.95c8.11-10.6,11.3-18.44,5.81-31.78l-113.05-154.57,41.25-41.16c55.16,68.94,96.3,149.93,159.82,211.53l29.91,15.99h-123.74Z"/>
    <path d="M465.3,167.75c-35.66,20.4-54.35,35.85-83.78,63.86,8.18-25.25,23.49-45.15-4.03-63.86h87.81Z"/>
  </g>
  <text class="st0" transform="translate(122.69 690.34)"><tspan class="st2"><tspan x="0" y="0">TALEIKA</tspan></tspan><tspan class="st1"><tspan x="112.53" y="52.61">FILMS</tspan></tspan></text>
</svg>